<?xml version="1.0" standalone="no"?><!DOCTYPE svg PUBLIC "-//W3C//DTD SVG 1.1//EN" "http://www.w3.org/Graphics/SVG/1.1/DTD/svg11.dtd"><svg t="1524638477277" class="icon" style="" viewBox="0 0 1024 1024" version="1.1" xmlns="http://www.w3.org/2000/svg" p-id="3698" xmlns:xlink="http://www.w3.org/1999/xlink" width="48" height="48"><defs><style type="text/css"></style></defs><path d="M526.267372 66.821869C278.123457 66.821869 76.213051 268.371076 76.213051 516.514991S278.123457 966.569312 526.267372 966.569312c248.143915 0 450.054321-201.910406 450.054321-450.054321-0.361199-248.143915-202.271605-449.693122-450.054321-449.693122z m0 863.627514c-228.277954 0-413.934392-185.656437-413.934391-413.934392 0-228.277954 185.656437-413.934392 413.934391-413.934391S939.840564 288.598236 939.840564 516.514991c0 228.277954-185.656437 413.934392-413.573192 413.934392z" fill="#ffffff" p-id="3699"></path><path d="M661.355908 479.311464l-173.375661-100.052205c-8.668783-5.05679-17.337566-7.585185-25.64515-7.585185-23.116755 0-39.009524 18.421164-39.009524 44.788713v199.38201c0 12.280776 3.250794 23.116755 9.752381 31.06314 7.223986 9.029982 17.337566 13.725573 29.257143 13.725573 8.307584 0 16.976367-2.528395 25.64515-7.585185l173.375661-99.691006c15.53157-9.029982 24.561552-22.394356 24.561552-37.203527 0-14.086772-9.029982-27.812346-24.561552-36.842328z m-18.059964 43.343915l-173.375662 99.691005c-4.334392 2.528395-6.862787 2.528395-7.585185 2.528396h-0.722399c-0.361199-0.361199-2.167196-2.528395-2.167195-8.668784v-199.38201c0-6.140388 1.444797-8.307584 2.167195-8.668783h0.722399c1.083598 0 3.611993 0.361199 7.585185 2.528395l173.375662 100.052204c5.05679 2.889594 6.501587 5.417989 6.501587 5.779189 0 0.722399-1.444797 3.250794-6.501587 6.140388z" fill="#ffffff" p-id="3700"></path></svg>